<svg id="Layer_1" enable-background="new 0 0 512 512" height="512" viewBox="0 0 512 512" width="512" xmlns="http://www.w3.org/2000/svg"><g><g><g><g><g><g id="XMLID_1031_"><g id="XMLID_1032_"><g id="XMLID_1033_"><g id="XMLID_1034_"><g id="XMLID_1035_"><g id="XMLID_1036_"><g id="XMLID_1037_"><g id="XMLID_1149_"><g id="XMLID_1161_"><g id="XMLID_1226_"><g id="XMLID_1745_"><g id="XMLID_1768_"><g id="XMLID_1770_"><g id="XMLID_2046_"><g><path d="m512 256c0 89.93-46.37 169.03-116.51 214.69-13.06 8.5-104.78-23.938-139.49-23.938s-126.43 32.438-139.49 23.938c-70.14-45.66-116.51-124.76-116.51-214.69 0-141.38 114.62-256 256-256s256 114.62 256 256z" fill="#fff17d"/></g></g></g></g></g></g></g></g></g></g></g></g></g></g></g></g></g></g></g><path d="m486.972 145.481-73.034-73.034-295.971 144.667 31.827 32.119c-8.63 18.325-32.431 178.089-87.653 173.957 15.769 18.267 34.071 34.286 54.369 47.5 13.06 8.5 104.78-23.938 139.49-23.938s126.43 32.438 139.49 23.938c70.14-45.66 116.51-124.76 116.51-214.69 0-39.581-8.989-77.061-25.028-110.519z" fill="#ffdd54"/><g><path d="m138.394 171.779s5.617-184.221 262.253-89.391c0 0-36.124 43.926-28.437 89.391z" fill="#ff405c"/><path d="m372.21 171.78h-116.21v-115.86c36.05-2.96 83.14 3.74 144.65 26.47 0 0-36.13 43.92-28.44 89.39z" fill="#c1126b"/><circle cx="395.016" cy="85.831" fill="#ecf9fb" r="23.182"/><path d="m449.86 423.19c-46.94 54.39-116.38 88.81-193.86 88.81s-146.92-34.42-193.86-88.81c13.27-12.52 24.65-28.78 33.57-43.84 13.68-23.11 20.8-49.51 20.8-76.37v-13.27c0-77.29 62.23-140.97 139.52-140.95 38.51.01 73.37 15.62 98.61 40.86 25.24 25.23 40.85 60.11 40.85 98.63v14.73c0 26.86 7.12 53.26 20.8 76.37 8.92 15.06 20.3 31.32 33.57 43.84z" fill="#806e66"/><path d="m449.86 423.19c-46.94 54.39-116.38 88.81-193.86 88.81v-363.24h.03c28.35.01 54.73 8.47 76.74 23.02 7.89 5.2 15.21 11.18 21.87 17.84 25.24 25.23 40.85 60.11 40.85 98.63v14.73c0 26.86 7.12 53.26 20.8 76.37 8.92 15.06 20.3 31.32 33.57 43.84z" fill="#63544f"/><path d="m397.14 469.61c-40.46 26.79-88.98 42.39-141.14 42.39s-100.68-15.6-141.14-42.39l33.89-57.91c6.07-10.37 9.27-22.18 9.27-34.2v-105.59c0-27.06 21.93-48.99 48.99-48.99h1.75c22.56 0 41.55 15.25 47.24 36 5.69-20.75 24.68-36 47.24-36h1.75c27.06 0 48.99 21.93 48.99 48.99v105.59c0 12.02 3.2 23.83 9.27 34.2z" fill="#fff"/><path d="m397.14 469.61c-40.46 26.79-88.98 42.39-141.14 42.39v-253.08c5.69-20.75 24.68-36 47.24-36h1.75c27.06 0 48.99 21.93 48.99 48.99v105.59c0 12.02 3.2 23.83 9.27 34.2z" fill="#ecf9fb"/><g><path d="m390.902 219.004c-9.963 4.984-21.993 2.175-28.792-6.827-22.257-29.469-62.542-48.31-106.105-48.31-43.569 0-83.858 18.841-106.116 48.311-6.798 9.001-18.829 11.81-28.791 6.826-13.481-6.744-17.447-24.539-8.245-36.716 12.438-16.461 28.607-30.646 47.775-41.781 28.215-16.39 61.196-25.053 95.378-25.053s67.162 8.663 95.374 25.054c19.165 11.134 35.332 25.32 47.769 41.781 9.2 12.177 5.234 29.971-8.247 36.715z" fill="#fff"/></g><g><path d="m390.9 219c-9.96 4.99-21.99 2.18-28.79-6.82-22.26-29.47-62.54-48.31-106.1-48.31h-.01v-48.42h.01c34.18 0 67.16 8.67 95.37 25.06 19.16 11.13 35.33 25.32 47.77 41.78 9.2 12.18 5.23 29.97-8.25 36.71z" fill="#ecf9fb"/></g><g><ellipse cx="215.808" cy="299.713" fill="#5c5e6f" rx="20.515" ry="20.515" transform="matrix(.854 -.521 .521 .854 -124.514 156.248)"/><ellipse cx="296.192" cy="299.713" fill="#63544f" rx="20.515" ry="20.515" transform="matrix(.944 -.332 .332 .944 -82.601 115.123)"/></g><path d="m256 346.976-32.735 22.713 32.735 37.166 32.735-37.166z" fill="#f9d170"/><path d="m256 346.976-32.735 22.713 32.735 37.166 32.735-37.166z" fill="#ffdd54"/><path d="m288.73 369.69-32.73 37.16v-59.87z" fill="#ffb454"/></g></g></svg>