<?xml version="1.0" encoding="iso-8859-1"?>
<!-- Generator: Adobe Illustrator 19.0.0, SVG Export Plug-In . SVG Version: 6.00 Build 0)  -->
<svg version="1.1" id="Capa_1" xmlns="http://www.w3.org/2000/svg" xmlns:xlink="http://www.w3.org/1999/xlink" x="0px" y="0px"
	 viewBox="0 0 512 512" style="enable-background:new 0 0 512 512;" xml:space="preserve">
<path style="fill:#EA7786;" d="M492.603,400.346h-29.777c-7.017,0-12.706-5.689-12.706-12.706v-82.119
	c0-7.017,5.689-12.706,12.706-12.706h29.777c10.713,0,19.397,8.685,19.397,19.397v68.736
	C512,391.661,503.315,400.346,492.603,400.346z"/>
<g>
	<path style="fill:#E35968;" d="M481.06,336.708h-30.94c-4.143,0-7.5-3.357-7.5-7.5s3.357-7.5,7.5-7.5h30.94
		c4.142,0,7.5,3.357,7.5,7.5S485.202,336.708,481.06,336.708z"/>
	<path style="fill:#E35968;" d="M481.06,371.452h-30.94c-4.143,0-7.5-3.357-7.5-7.5c0-4.142,3.357-7.5,7.5-7.5h30.94
		c4.142,0,7.5,3.358,7.5,7.5C488.56,368.095,485.202,371.452,481.06,371.452z"/>
</g>
<path style="fill:#60C28E;" d="M188.983,193.77c-4.556,0-9.111-1.738-12.587-5.214L130.2,142.36c-6.952-6.951-6.952-18.222,0-25.173
	c6.951-6.951,18.222-6.951,25.173,0l46.196,46.196c6.952,6.951,6.952,18.222,0,25.173
	C198.094,192.032,193.538,193.77,188.983,193.77z"/>
<path style="fill:#80D3AE;" d="M188.983,266.539c-9.831,0-17.8-7.969-17.8-17.8v-80.314c0-22.364,8.709-43.389,24.523-59.203
	l36.428-36.429c6.951-6.951,18.222-6.953,25.173,0c6.952,6.951,6.952,18.221,0,25.173l-36.428,36.429
	c-9.089,9.09-14.095,21.175-14.095,34.03v80.314C206.783,258.569,198.813,266.539,188.983,266.539z"/>
<path style="fill:#A67E74;" d="M274.262,249.571c-7.26-0.17-14.211,1.049-20.615,3.403c-3.99,1.466-8.514,0.353-11.157-2.976
	c-12.508-15.763-31.822-25.879-53.508-25.879s-41,10.116-53.508,25.879c-2.642,3.33-7.167,4.443-11.157,2.976
	c-6.404-2.354-13.356-3.572-20.616-3.403c-29.382,0.687-53.537,24.505-54.603,53.876c-1.157,31.866,24.332,58.063,55.939,58.063
	c15.674,0,29.836-6.45,39.997-16.831c11.879,9.999,27.205,16.033,43.947,16.033s32.068-6.034,43.947-16.033
	c10.161,10.381,24.323,16.831,39.997,16.831c31.608,0,57.097-26.197,55.939-58.063C327.799,274.077,303.645,250.259,274.262,249.571
	z"/>
<g>
	<circle style="fill:#946450;" cx="111.64" cy="273.38" r="7.451"/>
	<circle style="fill:#946450;" cx="178.96" cy="251.07" r="7.451"/>
	<circle style="fill:#946450;" cx="257.96" cy="280.829" r="7.451"/>
</g>
<path style="fill:#E0F7FF;" d="M382.691,292.6l-12.152-26.641c-4.785-10.489-15.252-17.22-26.781-17.22H331.9
	c-7.675,0-14.415,5.099-16.503,12.484l-7.259,25.676c-2.374,8.396-10.037,14.193-18.762,14.193H88.588
	c-8.725,0-16.388-5.797-18.762-14.193l-7.259-25.676c-2.088-7.385-8.828-12.484-16.503-12.484H27.451
	C12.29,248.739,0,261.029,0,276.19v9.738c0,5.435,3.07,10.403,7.931,12.833l0,0c7.641,3.82,7.641,14.724,0,18.545l0,0
	C3.07,319.736,0,324.704,0,330.139v32.883c0,5.435,3.07,10.403,7.931,12.833l0,0c7.641,3.82,7.641,14.724,0,18.545l0,0
	C3.07,396.829,0,401.798,0,407.233v9.738c0,15.161,12.29,27.451,27.451,27.451h316.307c11.529,0,21.997-6.731,26.781-17.22
	l12.152-26.641c4.79-10.501,15.268-17.238,26.81-17.238h40.619v-73.485H409.5C397.959,309.838,387.48,303.1,382.691,292.6z"/>
<g>
	<rect x="418.18" y="309.84" style="fill:#BDECFF;" width="31.942" height="73.48"/>
	<path style="fill:#BDECFF;" d="M354.568,442.352c-142.929-12.676-216.048-78.654-247.863-141.259H88.588
		c-8.725,0-16.388-5.797-18.762-14.193l-7.259-25.676c-2.088-7.385-8.828-12.484-16.503-12.484H27.451
		C12.29,248.739,0,261.029,0,276.19v9.738c0,5.435,3.071,10.403,7.931,12.833l0,0c7.641,3.82,7.641,14.724,0,18.545l0,0
		C3.071,319.736,0,324.704,0,330.139v32.883c0,5.435,3.071,10.403,7.931,12.833l0,0c7.641,3.82,7.641,14.724,0,18.545l0,0
		C3.071,396.829,0,401.798,0,407.233v9.738c0,15.161,12.29,27.451,27.451,27.451h316.307
		C347.53,444.422,351.184,443.689,354.568,442.352z"/>
</g>
<g>
	<rect x="125.87" y="301.09" style="fill:#7FAFE3;" width="15" height="143.33"/>
	<rect x="181.48" y="301.09" style="fill:#7FAFE3;" width="15" height="143.33"/>
	<rect x="237.09" y="301.09" style="fill:#7FAFE3;" width="15" height="143.33"/>
</g>
<g>
</g>
<g>
</g>
<g>
</g>
<g>
</g>
<g>
</g>
<g>
</g>
<g>
</g>
<g>
</g>
<g>
</g>
<g>
</g>
<g>
</g>
<g>
</g>
<g>
</g>
<g>
</g>
<g>
</g>
</svg>
